<?xml version="1.0" encoding="utf-8"?>
<!-- Generator: Adobe Illustrator 15.1.0, SVG Export Plug-In . SVG Version: 6.00 Build 0)  -->
<!DOCTYPE svg PUBLIC "-//W3C//DTD SVG 1.1//EN" "http://www.w3.org/Graphics/SVG/1.1/DTD/svg11.dtd">
<svg version="1.1" id="Layer_1" xmlns="http://www.w3.org/2000/svg" xmlns:xlink="http://www.w3.org/1999/xlink" x="0px" y="0px"
	 width="200px" height="60px" viewBox="0 0 200 60" enable-background="new 0 0 200 60" xml:space="preserve">
<path fill="#858585" d="M82.102,26.877c-0.565-0.72-1.409-1.285-2.632-1.285c-3.07,0-3.697,2.884-3.697,5.233
	c0,1.597,0.283,3.415,1.409,4.448c0.534,0.501,1.285,0.814,2.288,0.814c1.223,0,2.067-0.563,2.632-1.283
	c0.813-1.066,1.034-2.57,1.034-3.979C83.135,29.416,82.915,27.942,82.102,26.877 M84.2,37.999c-1.002,0.815-2.318,1.378-3.948,1.378
	c-1.784,0-3.6-0.658-4.571-2.16L75.429,39h-3.384V16.383h3.916v7.518c0.753-0.907,2.317-1.597,4.262-1.597
	c1.66,0,2.975,0.501,3.978,1.316c1.943,1.597,2.915,4.072,2.915,7.267C87.114,33.957,86.143,36.4,84.2,37.999"/>
<path fill="#858585" d="M99.173,26.376c-0.531-0.563-1.344-0.94-2.474-0.94c-1.188,0-2.16,0.501-2.725,1.252
	c-0.562,0.722-0.813,1.475-0.845,2.539h7.049C100.146,28.004,99.804,27.067,99.173,26.376 M104.061,32.078h-10.9
	c-0.031,1.253,0.406,2.443,1.19,3.194c0.563,0.534,1.345,1.004,2.412,1.004c1.128,0,1.818-0.219,2.382-0.784
	c0.342-0.344,0.625-0.782,0.781-1.378h3.759c-0.094,0.972-0.752,2.255-1.379,3.006c-1.376,1.632-3.414,2.289-5.48,2.289
	c-2.226,0-3.855-0.783-5.139-2.007c-1.631-1.565-2.506-3.852-2.506-6.515c0-2.601,0.782-4.917,2.349-6.516
	c1.224-1.253,2.976-2.067,5.199-2.067c2.416,0,4.606,0.972,5.952,3.008c1.189,1.784,1.471,3.633,1.41,5.669
	C104.092,30.981,104.061,31.733,104.061,32.078"/>
<path fill="#858585" d="M117.014,39v-9.992c0-1.912-0.625-3.071-2.693-3.071c-1.379,0-2.287,0.879-2.818,2.069
	c-0.564,1.284-0.535,2.977-0.535,4.354V39h-3.916V22.71h3.289l0.283,2.101c0.973-1.725,2.916-2.507,4.793-2.507
	c3.477,0,5.516,2.442,5.516,5.827V39H117.014z"/>
<path fill="#858585" d="M130.795,39.22c-3.289,0-4.916-1.88-4.916-5.013v-8.269h-2.977v-3.227h2.977v-4.136l3.914-0.972v5.107h4.102
	v3.227h-4.102v7.926c0,1.252,0.564,1.784,1.818,1.784c0.812,0,1.471-0.031,2.535-0.155v3.287
	C133.051,39.063,131.954,39.22,130.795,39.22"/>
<path fill="#858585" d="M148.639,36.777c-1.129,1.409-3.102,2.568-5.576,2.568c-2.473,0-4.541-1.188-5.67-2.568
	c-1.221-1.534-1.785-3.572-1.785-5.951c0-2.382,0.564-4.417,1.785-5.953c1.129-1.378,3.197-2.568,5.67-2.568
	c2.475,0,4.447,1.159,5.576,2.568c0.752,0.972,1.191,2.255,1.252,3.54h-3.852c-0.033-0.595-0.221-1.096-0.469-1.504
	c-0.473-0.72-1.316-1.222-2.508-1.222c-1.064,0-1.848,0.439-2.381,1.005c-0.939,1.033-1.098,2.599-1.098,4.134
	c0,1.534,0.158,3.069,1.098,4.104c0.533,0.562,1.316,1.033,2.381,1.033c1.191,0,2.035-0.501,2.508-1.222
	c0.248-0.406,0.436-0.907,0.469-1.503h3.852C149.831,34.521,149.391,35.806,148.639,36.777"/>
<path fill="#858585" d="M162.04,31.764l-4.135,0.313c-1.189,0.094-2.35,0.815-2.35,2.132c0,1.252,1.1,2.033,2.318,2.033
	c2.445,0,4.166-1.313,4.166-3.726V31.764z M165.329,39.251c-1.689,0-2.631-1.065-2.756-2.286c-0.75,1.314-2.631,2.442-4.949,2.442
	c-3.883,0-5.889-2.442-5.889-5.106c0-3.101,2.412-4.884,5.512-5.105l4.793-0.344v-1.003c0-1.536-0.531-2.57-2.756-2.57
	c-1.816,0-2.881,0.815-2.977,2.32h-3.791c0.221-3.665,3.133-5.295,6.768-5.295c2.789,0,5.17,0.879,6.109,3.321
	c0.406,1.033,0.471,2.192,0.471,3.288v6.047c0,0.751,0.25,1.033,0.906,1.033c0.252,0,0.502-0.064,0.502-0.064v2.883
	C166.614,39.094,166.27,39.251,165.329,39.251"/>
<path fill="#858585" d="M189.174,39V28.882c0-2.005-0.535-3.164-2.51-3.164c-2.223,0-3.193,2.35-3.193,4.386V39h-3.883V28.882
	c0-2.005-0.533-3.164-2.508-3.164c-2.225,0-3.225,2.35-3.225,4.386V39h-3.887V22.71h3.258l0.314,2.164
	c0.908-1.506,2.475-2.57,4.635-2.57c2.287,0,3.855,1.002,4.668,2.663c0.971-1.691,2.727-2.663,4.92-2.663
	c3.477,0,5.291,2.317,5.291,5.702V39H189.174z"/>
<path fill="#858585" d="M32.402,36.599c6.601,0,11.4-4.798,11.4-11.399c0-6.598-3.601-12.299-12.599-12.299
	c-0.822,0-1.619,0.041-2.401,0.108v4.256c0.768-0.106,1.569-0.165,2.401-0.165c5.999,0,7.8,3.899,7.8,8.1
	c0,4.201-2.401,7.2-6.601,7.2c-4.2,0-6.602-2.999-6.602-7.2V0.283c-1.65,0.222-3.252,0.572-4.799,1.046V25.2
	C21.002,31.801,25.801,36.599,32.402,36.599"/>
<path fill="#858585" d="M41.242,38.167c-2.773,3.347-7.007,5.633-11.241,5.633c-7.201,0-12.599-6.6-12.599-13.798
	c0-1.405,0.207-2.753,0.6-4.012v-8.923C14.215,20.083,12,24.573,12,30.002c0,10.197,7.8,18,18.001,18
	c6.301,0.001,11.365-2.929,14.397-7.542L41.242,38.167z"/>
<path fill="#858585" d="M30.001,0c-0.402,0-0.803,0.01-1.199,0.023v4.203C29.198,4.21,29.597,4.2,30.001,4.2
	c14.4,0,24.602,11.4,24.602,25.801S44.401,55.801,30.001,55.801c-14.401,0-24.6-11.4-24.6-25.801
	c0-9.936,4.857-18.443,12.601-22.764V2.424C7.323,6.975,0,17.49,0,30c0,16.802,13.2,30,30.001,30c16.8,0,30.002-13.198,30.002-30
	C60.003,13.201,46.801,0,30.001,0"/>
</svg>
